<svg viewBox="0 0 512 512" xmlns="http://www.w3.org/2000/svg">
    <rect width="512" height="512" rx="120" fill="black"/>
    <path d="M256 384c0 26.51-21.49 48-48 48s-48-21.49-48-48 21.49-48 48-48c11.84 0 22.7 4.3 31.09 11.43L240 120c0-4.42 3.58-8 8-8s8 3.58 8 8v4.74c11.46 13.45 23.76 28.04 36.26 39.83l28.36 22.75C336 199.44 344 216.35 344 234.27c0 34.04-25.58 61.73-56 61.73-4.42 0-8-3.58-8-8s3.58-8 8-8c22.09 0 40-20.72 40-45.73 0-14.16-6.25-26.9-16.71-35.32l-28.12-22.56c-12.1-11.22-23.86-25.47-35.17-38.79L256 384z" fill="white"/>
</svg>
